<svg width="407.838" height="322.657" viewBox="0 0 107.907 85.37" xml:space="preserve" xmlns="http://www.w3.org/2000/svg">
  <path fill="currentColor" d="M29.618 62.143 4.392 35.567l-3.134-3.301.62-.51c1.263-1.036 4.655-2.88 6.803-3.698 3.883-1.478 6.764-1.971 11.545-1.974 7.95-.004 14.211 1.71 25.003 6.848 9.087 4.326 13.027 5.653 17.462 5.879 4.909.25 8.47-.658 16.272-4.148 6.43-2.877 7.929-3.27 12.568-3.295 3.351-.019 4.07.057 5.688.597 2.003.669 4.161 1.895 5.788 3.288l1.024.878-25.825 24.595C64.002 74.254 52.23 85.343 52.046 85.37S41.769 74.943 29.618 62.143m15.137-34.57c-.178-.06-.256-.217-.174-.35s-.209-.242-.646-.242c-.466 0-.898-.182-1.042-.438-.139-.249-.42-.37-.649-.283-.222.086-.623-.011-.892-.215s-.822-.374-1.229-.379c-.54-.006-.861-.222-1.19-.8-.457-.803-.948-1.012-1.245-.53-.09.145-.514.264-.942.264s-.778-.12-.778-.265-.538-.265-1.196-.265c-1.023 0-1.24-.097-1.501-.669-.613-1.344 1.488-2.885 2.262-1.658.364.577.039.915-.473.49-.488-.405-.944-.148-.944.53 0 .802 1.168.647 2.117-.28.446-.437.978-.794 1.18-.794.539 0 1.254.803 1.092 1.225-.076.2-.053.357.051.35.105-.006.488-.625.852-1.376.834-1.72 1.814-2.496 2.613-2.069 1.044.56.444 2.124-1.272 3.313-.607.42-1.077.96-1.077 1.24 0 .66.844.639 1.456-.037.515-.57 1.838-.716 2.134-.236.126.204.247.185.401-.064.164-.265.298-.28.519-.059.22.221.19.508-.121 1.11-.537 1.036-.53 1.101.122 1.101.298 0 .818-.298 1.155-.661.71-.767 1.33-.874 1.154-.199-.096.368.048.463.697.463.55 0 .818.13.818.397 0 .249-.204.37-.546.323-.3-.041-.96.205-1.464.548-.505.342-1.064.574-1.242.515m-1.886-2.602c.305-.369.27-.41-.278-.33-.346.05-.677.24-.737.422-.157.476.6.407 1.015-.092m-5.71-1.165c.09-.146-.022-.265-.25-.265-.226 0-.412.12-.412.265s.112.264.25.264c.136 0 .322-.119.412-.264m.661-1.058c0-.146-.126-.265-.28-.265s-.206.12-.117.265c.09.145.216.264.28.264s.117-.119.117-.264m3.97-2.113c0-.462-.684.002-1.14.773-.246.418-.445.86-.44.984.01.305 1.58-1.44 1.58-1.757M.977 25.615c-1.114-.407-.961-1.083.196-.866 1.465.275 1.476-.419.03-2.027-1.218-1.354-1.498-2.235-.9-2.832.465-.465 1.799-.407 1.799.08 0 .246-.25.396-.662.396-.364 0-.661.077-.661.171s.535.744 1.19 1.444c1.403 1.5 1.627 2.812.603 3.53-.665.466-.614.462-1.595.104m2.885-1.235c-.24-.266-.438-.802-.438-1.19 0-.834.932-1.87 1.49-1.657.233.09.32.038.217-.13-.095-.153.066-.34.357-.417.386-.101.575-.444.699-1.27.227-1.515.595-1.913 1.97-2.133 1.136-.182 1.158-.171 1.033.483-.11.578-.038.663.53.625 1.002-.068 1.042.591.048.79l-.845.17.177 1.35c.098.742.288 1.461.423 1.598.32.324 1.52-.795 1.626-1.517.146-.985.703-.805.806.26l.098 1.009.342-.86c.417-1.05 1.01-1.114 1.255-.137l.181.723.31-.922c.332-.984 1.118-1.3.973-.392-.077.489-.05.484.346-.066.278-.385.705-.595 1.209-.595.428 0 .778-.12.778-.265s.179-.264.397-.264c.296 0 .397.313.397 1.236v1.237l.662-.621c.363-.342.661-.899.661-1.237 0-.446.15-.615.547-.615.446 0 .513.11.362.595-.179.574-.167.58.334.132.285-.254.718-.463.96-.463.616 0 .557.703-.073.867-.284.074-.755.528-1.048 1.01-.455.748-.694.882-1.666.932-.623.032-1.273-.057-1.442-.198-.2-.166-.368-.158-.48.022-.307.498-1.428.307-1.752-.298l-.308-.576-.371.708c-.381.727-.983.926-1.291.426-.114-.183-.355-.118-.693.188-.395.357-.624.402-.966.186-.33-.208-.599-.183-1.027.098-.788.516-1.746.335-2.064-.392-.149-.338-.417-.54-.617-.463a2.2 2.2 0 0 1-.63.136c-.164 0-.214.313-.123.77.21 1.044-.488 1.332-.821.34l-.24-.713-.43.828c-.348.672-.916 1.156-1.355 1.156-.038 0-.267-.217-.508-.484m.67-.896c-.19-.19-.314-.205-.314-.04 0 .353.313.666.49.49.075-.075-.004-.278-.177-.45m1.803-1.654c0-.237-.155-.33-.397-.236-.218.083-.397.258-.397.388s.179.236.397.236a.394.394 0 0 0 .397-.388m10.7-.958c-.24-.391-.91.066-.91.622 0 .523.018.525.522.069.288-.26.463-.572.389-.691m-8.848.058c0-.629-.014-.633-.53-.167-.29.264-.528.572-.528.686s.238.19.529.168c.374-.029.529-.23.529-.687m-.375-2.614c-.268-.268-.676.492-.673 1.257.002.621.028.608.43-.206.234-.477.344-.95.243-1.051m23.592 5.204c-.624-.364-.59-.867.049-.7.45.117.48.053.257-.534-.32-.845-.073-1.656.506-1.651.66.006 1.2.424.99.764-.102.165-.294.232-.427.15-.139-.087-.174.193-.081.656.097.483.03.965-.169 1.203-.384.463-.502.475-1.125.112m-3.175-.42c-.584-.16-.598-.004.29-3.13.813-2.856.924-2.97 2.598-2.656 1.155.217 1.023.803-.18.803-.736 0-.914.12-1.075.718-.154.574-.092.75.31.878.765.243.653 1.008-.126.86-.524-.101-.674.024-.896.745-.285.93-.074 1.165 1.041 1.165.305 0 .484.14.421.33-.111.34-1.557.514-2.383.287m-5.603-.768q-.874-.874.195-2.117c.461-.537.752-.665 1.19-.526.853.27.768 1.346-.147 1.873l-.728.42.728-.152c.772-.16.933.077.41.6-.44.44-1.153.397-1.648-.098m1.171-1.701c0-.146-.052-.265-.116-.265s-.19.12-.28.265-.038.264.116.264.28-.119.28-.264M10.742 10.72c-.56-.2-1.315-.64-1.68-.98-.595-.557-1.404-1.82-1.404-2.193 0-.08 1.062-.145 2.36-.145 1.749 0 2.565.118 3.153.455.609.35.963.396 1.521.199 1.466-.518.96-.825-1.872-1.134-1.534-.168-3.144-.488-3.576-.712-2.356-1.218-1.906-4.009.886-5.493.942-.5 1.516-.584 4.01-.584 2.462 0 3.073.086 3.969.563 1.245.664 1.844 1.276 2.224 2.274l.276.728h-2.454c-1.382 0-2.577-.123-2.735-.282-.361-.36-2.53-.211-2.66.183-.063.192.547.362 1.7.475 3.278.322 4.624.69 5.418 1.484.438.439.744 1.03.744 1.44 0 1.543-1.577 3.33-3.381 3.832-1.392.386-5.292.32-6.5-.11m14.733.006C22.96 9.94 21.68 8.239 21.68 5.684c0-3.515 2.115-5.35 6.482-5.624 3.888-.243 6.803.952 7.828 3.21 1.42 3.124-.135 6.426-3.495 7.424-1.678.498-5.475.516-7.021.032m5.618-3.37c.958-.982.955-2.576-.007-3.538-.531-.531-.914-.65-2.094-.65-1.287 0-1.518.088-2.128.814-.753.894-.857 1.696-.361 2.783.673 1.478 3.383 1.826 4.59.59m51.705 3.502c-1.824-.554-2.834-1.434-3.285-2.861-.186-.587-.156-.596 2.189-.596 1.766 0 2.582.118 3.171.456.609.35.964.396 1.521.198 1.4-.494 1.01-.847-1.136-1.028-3.016-.254-4.463-.643-5.224-1.405-1.739-1.739.044-4.717 3.219-5.376 3.389-.704 7.214.18 8.27 1.912.922 1.513.82 1.591-1.91 1.442-1.347-.073-2.99-.21-3.654-.305-.885-.126-1.288-.072-1.517.204-.264.318.121.423 2.513.685 3.131.341 4.517.888 5.058 1.993.792 1.62-.654 3.851-2.936 4.529-1.402.416-5.115.506-6.28.152m14.081-.253c-2.48-.857-3.578-2.358-3.598-4.923-.016-2.096.638-3.42 2.166-4.39 3.394-2.152 9.782-1.516 11.726 1.168 1.194 1.648 1.092 1.766-1.511 1.766-1.873 0-2.392-.093-2.947-.529-.484-.38-1.073-.529-2.104-.529-1.21 0-1.534.11-2.081.7-1.303 1.406-.576 3.739 1.314 4.213.99.249 2.387-.078 2.936-.685.405-.447.818-.524 2.815-.524 2.499 0 2.594.064 1.953 1.305-.58 1.12-1.855 2.073-3.378 2.525-1.888.561-5.527.513-7.29-.097m-58.794-5.06V.247l6.151.071 6.152.071.08 1.257.081 1.257h-7.702V4.49h6.35v2.117h-6.35v4.233h-4.762zm17.198 1.327V2.903h-3.969V.257h12.7v2.646h-3.969v7.937h-4.762zm10.319-1.323V.257h12.17v2.646h-7.672v1.571l3.24.074 3.242.074.082.993.082.992h-6.647v1.587H78.3v2.646H65.6z"/>
</svg>