<svg width="403.074" height="286.661" viewBox="0 0 106.647 75.846" xml:space="preserve" xmlns="http://www.w3.org/2000/svg"><path fill="currentColor" d="M28.36 52.619 3.134 26.043 0 22.742l.62-.51c1.263-1.036 4.655-2.88 6.803-3.698 3.883-1.478 6.764-1.971 11.545-1.974 7.95-.004 14.21 1.71 25.003 6.848 9.087 4.326 13.027 5.653 17.462 5.879 4.909.25 8.47-.658 16.272-4.148 6.43-2.877 7.929-3.27 12.568-3.295 3.35-.019 4.07.057 5.688.597 2.003.669 4.16 1.895 5.788 3.288l1.024.878-25.825 24.595C62.744 64.73 50.972 75.819 50.788 75.846S40.51 65.419 28.36 52.619M9.484 10.721c-.56-.2-1.315-.64-1.68-.98C7.209 9.184 6.4 7.921 6.4 7.548c0-.08 1.062-.145 2.36-.145 1.749 0 2.565.118 3.153.455.609.35.963.396 1.52.199 1.467-.518.96-.825-1.871-1.134-1.534-.168-3.144-.488-3.576-.712C5.63 4.993 6.08 2.202 8.872.718c.942-.5 1.516-.584 4.01-.584 2.462 0 3.073.086 3.969.563 1.245.664 1.844 1.276 2.224 2.274l.276.728h-2.454c-1.382 0-2.577-.123-2.735-.282-.361-.36-2.53-.211-2.66.183-.063.192.547.362 1.7.475 3.278.322 4.624.69 5.418 1.484.438.439.744 1.03.744 1.44 0 1.543-1.577 3.33-3.381 3.832-1.392.386-5.292.32-6.5-.11m14.733.006c-2.514-.786-3.794-2.487-3.794-5.042 0-3.515 2.115-5.35 6.482-5.624 3.888-.243 6.803.952 7.828 3.21 1.42 3.124-.135 6.426-3.495 7.424-1.678.498-5.475.516-7.021.032m5.618-3.37c.958-.982.955-2.576-.007-3.538-.531-.531-.914-.65-2.094-.65-1.287 0-1.518.088-2.128.814-.753.894-.857 1.696-.361 2.783.673 1.478 3.383 1.826 4.59.59m51.705 3.502c-1.824-.554-2.834-1.434-3.285-2.861-.186-.587-.156-.596 2.189-.596 1.766 0 2.582.118 3.17.456.61.35.965.396 1.522.198 1.4-.494 1.01-.847-1.136-1.028-3.016-.254-4.463-.643-5.224-1.405-1.74-1.739.044-4.717 3.219-5.376 3.389-.704 7.214.18 8.27 1.912.922 1.513.82 1.591-1.91 1.442-1.347-.073-2.99-.21-3.654-.305-.885-.126-1.288-.072-1.517.204-.264.318.12.423 2.513.685 3.13.341 4.517.888 5.058 1.993.792 1.62-.654 3.851-2.936 4.529-1.402.416-5.115.506-6.28.152m14.08-.253c-2.48-.857-3.577-2.358-3.597-4.923-.016-2.096.638-3.42 2.166-4.39C97.58-.86 103.969-.224 105.913 2.46c1.194 1.648 1.092 1.766-1.511 1.766-1.873 0-2.392-.093-2.947-.529-.484-.38-1.073-.529-2.104-.529-1.21 0-1.534.11-2.081.7-1.303 1.406-.576 3.739 1.314 4.213.99.249 2.387-.078 2.936-.685.405-.447.818-.524 2.815-.524 2.499 0 2.594.064 1.953 1.305-.58 1.12-1.855 2.073-3.378 2.525-1.888.561-5.527.513-7.29-.097m-58.794-5.06V.248l6.15.071L49.13.39l.08 1.257.08 1.257h-7.701v1.587h6.35v2.117h-6.35v4.233h-4.762zm17.198 1.327V2.904h-3.97V.258h12.7v2.646h-3.968v7.937h-4.762zm10.319-1.323V.258h12.17v2.646H68.84v1.571l3.24.074 3.242.074.082.993.082.992H68.84v1.587h8.202v2.646h-12.7z"/></svg>